#!OML:ASF X:\für Bonn\!DataBase\2005_08_12_Daniel\c3d\Daniel.ASF
:FULLY-SPECIFIED
:DEGREES
81
root -3.23346 6.1785 -2.82967 312.961 -81.8613 -349.373
lowerback 57.7118 -3.86941 0.531096
upperback 7.14917 -6.75943 -2.30297
thorax -13.6847 -3.69613 0.670536
lowerneck 6.39292 2.30576 -1.2175
upperneck -3.85256 2.83754 -2.31913
head -2.29817 1.49804 -0.639073
rclavicle 4.30369e-014 2.48481e-014
rhumerus 67.367 9.15522 -72.5097
rradius 15.4794
rwrist 39.0241
rhand -23.5772 14.7124
rfingers 7.12502
rthumb 2.88569 -15.2478
lclavicle 4.30369e-014 2.48481e-014
lhumerus 67.3352 -5.32958 72.6817
lradius 15.5573
lwrist -47.7805
lhand -23.1652 0.0109842
lfingers 7.12502
lthumb 3.28352 29.9654
rfemur 5.83774 -42.4415 -142.555
rtibia 158.332
rfoot -105.226 75.1861
rtoes -2.42341
lfemur -45.1322 63.9462 55.5624
ltibia 155.546
lfoot -4.47292 -74.0558
ltoes 7.39792
82
root -3.24075 6.08622 -2.82722 312.794 -81.8203 -349.347
lowerback 57.7201 -3.86611 0.520738
upperback 7.28473 -6.78279 -2.31877
thorax -13.5263 -3.71961 0.661905
lowerneck 6.67621 2.28492 -1.13422
upperneck -4.24726 2.79832 -2.39801
head -2.48037 1.48554 -0.687032
rclavicle -3.67752e-015 -5.96354e-015
rhumerus 67.5736 9.19131 -72.029
rradius 15.4882
rwrist 38.7729
rhand -23.4291 14.6088
rfingers 7.12502
rthumb 3.02871 -15.3494
lclavicle -3.67752e-015 -5.96354e-015
lhumerus 67.3184 -5.39925 72.6742
lradius 15.6588
lwrist -47.2187
lhand -23.4734 -0.0464208
lfingers 7.12502
lthumb 2.98591 29.9124
rfemur 175.753 42.5056 36.5895
rtibia 200.95
rfoot -109.439 104.269
rtoes -2.34368
lfemur -44.79 64.7978 57.5407
ltibia 156.248
lfoot -3.05434 -74.779
ltoes 7.31812
83
root -3.24654 6.05177 -2.82524 312.771 -81.7717 -349.437
lowerback 57.7325 -3.87921 0.523599
upperback 7.4075 -6.81657 -2.34034
thorax -13.3853 -3.74618 0.646744
lowerneck 6.96062 2.26943 -1.0353
upperneck -4.61767 2.76838 -2.47577
head -2.65587 1.47704 -0.737777
rclavicle -1.60022e-014 2.34566e-014
rhumerus 67.8163 9.28381 -71.3449
rradius 15.5176
rwrist 38.1838
rhand -23.1839 14.3712
rfingers 7.12502
rthumb 3.26552 -15.5836
lclavicle -1.60022e-014 2.34566e-014
lhumerus 67.3461 -5.61213 72.1466
lradius 15.7409
lwrist -45.9922
lhand -23.8186 -0.0403443
lfingers 7.12502
lthumb 2.65257 29.9229
rfemur 176.264 42.303 35.6679
rtibia 200.627
rfoot -111.805 104.341
rtoes -2.38659
lfemur -42.8872 65.6604 60.2568
ltibia 156.541
lfoot -4.56197 -75.4329
ltoes 7.10154
84
root -3.24877 5.98996 -2.82302 312.757 -81.7327 -349.501
lowerback 57.7438 -3.90282 0.532384
upperback 7.52006 -6.85866 -2.36631
thorax -13.2576 -3.77521 0.628608
lowerneck 7.17606 2.26289 -0.961307
upperneck -4.90048 2.75338 -2.52469
head -2.79062 1.47408 -0.773497
rclavicle -8.05078e-014 -1.15295e-014
rhumerus 68.0634 9.38137 -70.7315
rradius 15.5181
rwrist 37.6029
rhand -23.005 14.1603
rfingers 7.12502
rthumb 3.43824 -15.7918
lclavicle -8.05078e-014 -1.15295e-014
lhumerus 67.4312 -5.96879 71.0215
lradius 15.8237
lwrist -44.1072
lhand -24.2091 0.0824927
lfingers 7.12502
lthumb 2.27538 30.0501
rfemur 177.372 42.3446 35.0416
rtibia 200.114
rfoot -114.786 104.154
rtoes -2.42938
lfemur -42.877 66.2546 61.3073
ltibia 157.034
lfoot -4.49028 -75.7207
ltoes 6.84256
85
root -3.24822 5.94347 -2.82116 312.7 -81.6913 -349.461
lowerback 57.7249 -3.91251 0.529767
upperback 7.61974 -6.88726 -2.39109
thorax -13.1424 -3.79614 0.610388
lowerneck 7.35377 2.24723 -0.825024
upperneck -5.09121 2.73139 -2.6322
head -2.88614 1.46724 -0.836872
rclavicle 3.86636e-014 2.24627e-014
rhumerus 68.2544 9.40334 -70.4019
rradius 15.4738
rwrist 37.2325
rhand -22.9021 13.9282
rfingers 7.12502
rthumb 3.53768 -16.0222
lclavicle 3.86636e-014 2.24627e-014
lhumerus 67.5403 -6.39463 69.665
lradius 15.9178
lwrist -42.015
lhand -24.5709 0.243548
lfingers 7.12502
lthumb 1.92604 30.2146
rfemur 178.158 42.3828 34.426
rtibia 199.694
rfoot -117.069 104.045
rtoes -2.56732
lfemur -43.0376 66.7573 61.8615
ltibia 157.425
lfoot -5.08608 -75.8119
ltoes 6.51245
